<svg width="278" height="145" viewBox="0 0 278 145" fill="none" xmlns="http://www.w3.org/2000/svg">
<path d="M231.963 100H222.037C213.761 100 207.054 93.2931 207.054 85.0175V74.8647C207.054 72.1518 204.855 69.9459 202.135 69.9459H191.983C183.707 69.9459 177 63.239 177 54.9633V45.0367C177 36.761 183.707 30.0541 191.983 30.0541H197.806C199.943 30.0541 201.676 31.7874 201.676 33.9248C201.676 36.0622 199.943 37.7954 197.806 37.7954H191.983C187.982 37.7954 184.734 41.0427 184.734 45.0435V54.9702C184.734 58.971 187.982 62.2183 191.983 62.2183H202.135C209.123 62.2183 214.795 67.8838 214.795 74.8784V85.0312C214.795 89.032 218.043 92.2792 222.043 92.2792H231.97C235.971 92.2792 239.218 89.032 239.218 85.0312V77.5228C239.218 71.1859 236.752 65.2257 232.272 60.7454L216.282 44.7489C210.342 38.8025 207.068 30.9036 207.068 22.4978V14.9825C207.068 6.70686 213.775 0 222.05 0H231.977C240.253 0 246.96 6.70686 246.96 14.9825V25.1353C246.96 27.8482 249.159 30.0541 251.878 30.0541H262.031C270.307 30.0541 277.014 36.761 277.014 45.0367V54.9633C277.014 63.239 270.307 69.9459 262.031 69.9459H256.215C254.077 69.9459 252.344 68.2126 252.344 66.0752C252.344 63.9378 254.077 62.2046 256.215 62.2046H262.031C266.032 62.2046 269.279 58.9573 269.279 54.9565V45.0298C269.279 41.029 266.032 37.7817 262.031 37.7817H251.865C244.877 37.7817 239.211 32.1162 239.211 25.1285V14.9825C239.211 10.9817 235.964 7.73447 231.963 7.73447H222.037C218.036 7.73447 214.789 10.9749 214.789 14.9825V22.4909C214.789 28.8278 217.255 34.788 221.735 39.2683L237.725 55.2579C243.671 61.1975 246.939 69.1032 246.939 77.5091V85.0175C246.946 93.2863 240.239 100 231.963 100Z" fill="#3DA9FC"/>
<path d="M52.24 63V25.72L37.68 53.48H31.52L16.96 25.72V63H5.92V6.2H17.76L34.56 38.52L51.52 6.2H63.28V63H52.24ZM92.8356 63.8C89.4756 63.8 86.4356 63.24 83.7156 62.12C80.9956 60.9467 78.6756 59.3733 76.7556 57.4C74.8356 55.3733 73.3423 53.08 72.2756 50.52C71.2623 47.9067 70.7556 45.16 70.7556 42.28C70.7556 38.28 71.6356 34.6267 73.3956 31.32C75.209 28.0133 77.769 25.3733 81.0756 23.4C84.4356 21.3733 88.3823 20.36 92.9156 20.36C97.5023 20.36 101.422 21.3733 104.676 23.4C107.929 25.3733 110.409 28.0133 112.116 31.32C113.876 34.5733 114.756 38.0933 114.756 41.88C114.756 42.52 114.729 43.1867 114.676 43.88C114.622 44.52 114.569 45.0533 114.516 45.48H82.1156C82.329 47.6133 82.9423 49.48 83.9556 51.08C85.0223 52.68 86.3556 53.9067 87.9556 54.76C89.609 55.56 91.369 55.96 93.2356 55.96C95.369 55.96 97.369 55.4533 99.2356 54.44C101.156 53.3733 102.462 51.9867 103.156 50.28L112.356 52.84C111.342 54.9733 109.876 56.8667 107.956 58.52C106.089 60.1733 103.876 61.48 101.316 62.44C98.7556 63.3467 95.929 63.8 92.8356 63.8ZM81.8756 38.68H103.796C103.582 36.5467 102.969 34.7067 101.956 33.16C100.996 31.56 99.7156 30.3333 98.1156 29.48C96.5156 28.5733 94.729 28.12 92.7556 28.12C90.8356 28.12 89.0756 28.5733 87.4756 29.48C85.929 30.3333 84.649 31.56 83.6356 33.16C82.6756 34.7067 82.089 36.5467 81.8756 38.68ZM118.726 42.04C118.726 37.9867 119.526 34.3333 121.126 31.08C122.726 27.7733 124.94 25.16 127.766 23.24C130.593 21.32 133.82 20.36 137.446 20.36C140.54 20.36 143.313 21.1333 145.766 22.68C148.273 24.1733 150.22 26.0933 151.606 28.44V4.6H162.326V51C162.326 52.12 162.513 52.92 162.886 53.4C163.26 53.88 163.9 54.1733 164.806 54.28V63C162.94 63.3733 161.42 63.56 160.246 63.56C158.326 63.56 156.726 63.08 155.446 62.12C154.22 61.16 153.526 59.9067 153.366 58.36L153.206 55.72C151.66 58.3333 149.553 60.3333 146.886 61.72C144.273 63.1067 141.526 63.8 138.646 63.8C135.766 63.8 133.1 63.24 130.646 62.12C128.246 61 126.14 59.4533 124.326 57.48C122.566 55.5067 121.18 53.2133 120.166 50.6C119.206 47.9333 118.726 45.08 118.726 42.04ZM151.606 47.64V37.64C151.073 36.0933 150.22 34.7067 149.046 33.48C147.873 32.2533 146.566 31.2933 145.126 30.6C143.686 29.8533 142.246 29.48 140.806 29.48C139.153 29.48 137.66 29.8267 136.326 30.52C134.993 31.2133 133.82 32.1467 132.806 33.32C131.846 34.4933 131.1 35.8533 130.566 37.4C130.086 38.9467 129.846 40.5733 129.846 42.28C129.846 43.9867 130.113 45.6133 130.646 47.16C131.233 48.6533 132.06 49.96 133.126 51.08C134.193 52.2 135.42 53.08 136.806 53.72C138.246 54.36 139.793 54.68 141.446 54.68C142.46 54.68 143.473 54.52 144.486 54.2C145.553 53.8267 146.54 53.3467 147.446 52.76C148.406 52.12 149.233 51.3733 149.926 50.52C150.673 49.6133 151.233 48.6533 151.606 47.64Z" fill="#094067"/>
<path d="M40.4609 82.9688C40.4609 84.388 39.8424 85.0977 38.6055 85.0977C38.2539 85.0977 37.4727 84.9219 36.2617 84.5703C35.0508 84.2188 34.1003 84.043 33.4102 84.043C32.0169 84.043 30.9688 84.6354 30.2656 85.8203C29.7188 86.7448 29.4453 88.2227 29.4453 90.2539C29.4453 92.2721 29.7448 93.737 30.3438 94.6484C31.112 95.8203 32.3424 96.4062 34.0352 96.4062C34.8424 96.4062 35.7995 96.2435 36.9062 95.918C38.026 95.5924 38.7878 95.4297 39.1914 95.4297C39.6081 95.4297 39.9661 95.5729 40.2656 95.8594C40.5781 96.1328 40.7344 96.6276 40.7344 97.3438C40.7344 98.0469 40.0117 98.724 38.5664 99.375C37.1211 100.013 35.6107 100.332 34.0352 100.332H33.5859C30.8255 100.332 28.651 99.5117 27.0625 97.8711C25.474 96.2305 24.6732 93.9974 24.6602 91.1719V89.7852C24.6602 86.6862 25.4935 84.2773 27.1602 82.5586C28.8268 80.8398 31.2682 79.9805 34.4844 79.9805H34.9141C36.0599 79.9805 37.1406 80.2148 38.1562 80.6836C39.6927 81.3867 40.4609 82.1484 40.4609 82.9688ZM52.3945 96.7188H53.1953C54.6146 96.7188 55.6758 96.1719 56.3789 95.0781C57.082 93.9844 57.4336 92.513 57.4336 90.6641V89.6289C57.4336 87.7409 57.056 86.263 56.3008 85.1953C55.5586 84.1146 54.5234 83.5742 53.1953 83.5742H52.6094C51.3203 83.5742 50.2852 84.082 49.5039 85.0977C48.7357 86.1003 48.3516 87.5456 48.3516 89.4336V90.6836C48.3516 92.5065 48.7031 93.9714 49.4062 95.0781C50.1224 96.1719 51.1185 96.7188 52.3945 96.7188ZM62.2188 89.1211V90.4883C62.2188 91.8685 62.0039 93.2161 61.5742 94.5312C61.1576 95.8464 60.5846 96.9076 59.8555 97.7148C59.1263 98.5091 58.1758 99.1667 57.0039 99.6875C55.8451 100.208 54.5755 100.469 53.1953 100.469H52.1602C49.5169 100.469 47.375 99.5312 45.7344 97.6562C44.3021 96.0286 43.5859 93.7565 43.5859 90.8398V89.4727C43.5859 88.0143 43.8073 86.6667 44.25 85.4297C44.7057 84.1927 45.3112 83.1771 46.0664 82.3828C46.8346 81.5885 47.8177 80.9701 49.0156 80.5273C50.2266 80.0846 51.5482 79.8633 52.9805 79.8633L53.332 79.8828C54.543 79.8828 55.7083 80.0911 56.8281 80.5078C59.1589 81.3932 60.7474 83.0013 61.5938 85.332C62.0104 86.4648 62.2188 87.7279 62.2188 89.1211ZM66.6719 83.3594C66.6719 82.3307 66.7695 81.6341 66.9648 81.2695C67.1732 80.9049 67.7005 80.7227 68.5469 80.7227C69.4062 80.7227 70.0312 80.8659 70.4219 81.1523C70.5 81.2044 70.6823 81.3997 70.9688 81.7383C71.2682 82.0638 71.4961 82.2266 71.6523 82.2266C71.8216 82.2266 72.1927 82.0703 72.7656 81.7578C74.263 80.9245 75.5195 80.5078 76.5352 80.5078H77.5508C78.5013 80.5078 79.3932 80.7096 80.2266 81.1133C81.8802 81.9206 82.9154 83.2747 83.332 85.1758C83.5404 86.1003 83.6445 87.474 83.6445 89.2969L83.8008 94.2188L83.9766 98.1055C83.9766 98.6784 83.8529 99.0755 83.6055 99.2969C83.3711 99.5182 82.8177 99.6289 81.9453 99.6289C80.6172 99.6289 79.8229 99.1081 79.5625 98.0664C79.3932 97.4023 79.2435 95.4492 79.1133 92.207C78.9961 88.9648 78.7878 86.9531 78.4883 86.1719C77.4987 84.9219 76.431 84.1667 75.2852 83.9062C73.7096 83.9062 72.6029 84.4661 71.9648 85.5859C71.4831 86.4193 71.2422 88.0729 71.2422 90.5469L71.1836 92.1094L71.1445 94.2188C71.1445 96.7448 71.0599 98.2292 70.8906 98.6719C70.5911 99.4531 69.7643 99.8438 68.4102 99.8438C67.5768 99.8438 67.0495 99.7135 66.8281 99.4531C66.6068 99.1797 66.4961 98.737 66.4961 98.125L66.5156 97.6172C66.5156 97.0964 66.5156 96.582 66.5156 96.0742L66.5938 92.9688V89.3164L66.6133 88.8086C66.6133 88.4701 66.6133 88.1315 66.6133 87.793L66.6523 85.2734L66.6719 84.7852V83.3594ZM89.0156 83.3594C89.0156 82.3307 89.1133 81.6341 89.3086 81.2695C89.5169 80.9049 90.0443 80.7227 90.8906 80.7227C91.75 80.7227 92.375 80.8659 92.7656 81.1523C92.8438 81.2044 93.026 81.3997 93.3125 81.7383C93.612 82.0638 93.8398 82.2266 93.9961 82.2266C94.1654 82.2266 94.5365 82.0703 95.1094 81.7578C96.6068 80.9245 97.8633 80.5078 98.8789 80.5078H99.8945C100.845 80.5078 101.737 80.7096 102.57 81.1133C104.224 81.9206 105.259 83.2747 105.676 85.1758C105.884 86.1003 105.988 87.474 105.988 89.2969L106.145 94.2188L106.32 98.1055C106.32 98.6784 106.197 99.0755 105.949 99.2969C105.715 99.5182 105.161 99.6289 104.289 99.6289C102.961 99.6289 102.167 99.1081 101.906 98.0664C101.737 97.4023 101.587 95.4492 101.457 92.207C101.34 88.9648 101.132 86.9531 100.832 86.1719C99.8424 84.9219 98.7747 84.1667 97.6289 83.9062C96.0534 83.9062 94.9466 84.4661 94.3086 85.5859C93.8268 86.4193 93.5859 88.0729 93.5859 90.5469L93.5273 92.1094L93.4883 94.2188C93.4883 96.7448 93.4036 98.2292 93.2344 98.6719C92.9349 99.4531 92.1081 99.8438 90.7539 99.8438C89.9206 99.8438 89.3932 99.7135 89.1719 99.4531C88.9505 99.1797 88.8398 98.737 88.8398 98.125L88.8594 97.6172C88.8594 97.0964 88.8594 96.582 88.8594 96.0742L88.9375 92.9688V89.3164L88.957 88.8086C88.957 88.4701 88.957 88.1315 88.957 87.793L88.9961 85.2734L89.0156 84.7852V83.3594ZM123.098 87.2656V86.9336C123.098 85.9049 122.753 85.0911 122.062 84.4922C121.372 83.8932 120.546 83.5938 119.582 83.5938H119.094C117.961 83.5938 117.01 83.9779 116.242 84.7461C115.474 85.5143 115.09 86.4518 115.09 87.5586V87.8711C115.09 88.2227 115.513 88.3984 116.359 88.3984H117.355L117.473 88.3789L121.613 88.1836L122.043 88.1445C122.746 88.1445 123.098 87.8516 123.098 87.2656ZM121.496 91.5234C117.29 91.5234 115.188 91.9661 115.188 92.8516C115.188 93.9714 115.598 94.8568 116.418 95.5078C117.238 96.1589 118.273 96.4844 119.523 96.4844C120.773 96.4844 121.978 96.3216 123.137 95.9961C124.296 95.6576 125.077 95.4883 125.48 95.4883C125.897 95.4883 126.242 95.6576 126.516 95.9961C126.802 96.3216 126.945 96.8164 126.945 97.4805C126.945 98.1315 126.229 98.7956 124.797 99.4727C123.378 100.15 121.913 100.488 120.402 100.488H118.977C117.857 100.488 116.672 100.26 115.422 99.8047C112.974 98.9193 111.392 97.3047 110.676 94.9609C110.272 93.6589 110.07 92.3438 110.07 91.0156V90.0781C110.07 85.3125 111.75 82.2135 115.109 80.7812C116.359 80.2474 117.779 79.9805 119.367 79.9805C122.062 79.9805 124.113 80.6576 125.52 82.0117C126.118 82.5977 126.626 83.431 127.043 84.5117C127.473 85.5924 127.688 86.5885 127.688 87.5V88.8086C127.688 89.9284 127.284 90.6641 126.477 91.0156C125.682 91.3542 124.022 91.5234 121.496 91.5234ZM147.023 82.9688C147.023 84.388 146.405 85.0977 145.168 85.0977C144.816 85.0977 144.035 84.9219 142.824 84.5703C141.613 84.2188 140.663 84.043 139.973 84.043C138.579 84.043 137.531 84.6354 136.828 85.8203C136.281 86.7448 136.008 88.2227 136.008 90.2539C136.008 92.2721 136.307 93.737 136.906 94.6484C137.674 95.8203 138.905 96.4062 140.598 96.4062C141.405 96.4062 142.362 96.2435 143.469 95.918C144.589 95.5924 145.35 95.4297 145.754 95.4297C146.171 95.4297 146.529 95.5729 146.828 95.8594C147.141 96.1328 147.297 96.6276 147.297 97.3438C147.297 98.0469 146.574 98.724 145.129 99.375C143.684 100.013 142.173 100.332 140.598 100.332H140.148C137.388 100.332 135.214 99.5117 133.625 97.8711C132.036 96.2305 131.236 93.9974 131.223 91.1719V89.7852C131.223 86.6862 132.056 84.2773 133.723 82.5586C135.389 80.8398 137.831 79.9805 141.047 79.9805H141.477C142.622 79.9805 143.703 80.2148 144.719 80.6836C146.255 81.3867 147.023 82.1484 147.023 82.9688ZM162.297 98.3203C162.297 99.4792 161.112 100.059 158.742 100.059C156.372 100.059 154.699 99.2513 153.723 97.6367C152.98 96.3867 152.609 93.8672 152.609 90.0781V89.2383L152.57 88.0273L152.551 87.6172L152.531 86.3867C152.531 85.4622 152.466 84.8698 152.336 84.6094C152.219 84.3359 151.828 84.0169 151.164 83.6523C150.513 83.2878 150.188 82.8125 150.188 82.2266V81.875C150.188 80.8594 150.559 80.1758 151.301 79.8242C152.043 79.4596 152.479 79.1211 152.609 78.8086C152.622 78.7695 152.727 78.1966 152.922 77.0898C153.13 75.9831 153.365 75.2344 153.625 74.8438C153.898 74.4531 154.497 74.2578 155.422 74.2578C156.359 74.2578 156.952 74.5443 157.199 75.1172C157.29 75.3255 157.434 76.0091 157.629 77.168C157.824 78.3268 158.046 79.056 158.293 79.3555C158.54 79.6419 159.133 79.8763 160.07 80.0586C161.008 80.2409 161.594 80.4232 161.828 80.6055C162.076 80.7878 162.199 81.2305 162.199 81.9336C162.199 82.6367 161.906 83.1185 161.32 83.3789C161.086 83.4831 160.533 83.5742 159.66 83.6523C158.788 83.7174 158.195 83.9258 157.883 84.2773C157.583 84.6289 157.434 85.8529 157.434 87.9492L157.414 88.3594C157.401 88.6328 157.395 88.9062 157.395 89.1797L157.375 89.5898V90.4297C157.375 93.0729 157.551 94.6549 157.902 95.1758C158.267 95.6966 158.898 96.0091 159.797 96.1133C160.695 96.2174 161.333 96.4193 161.711 96.7188C162.102 97.0182 162.297 97.5521 162.297 98.3203Z" fill="#3DA9FC"/>
<path d="M100.512 118.33V117.861C100.512 116.195 100.206 114.99 99.5938 114.248C98.9883 113.499 98.0573 113.125 96.8008 113.125H96.0781C95.5312 113.125 95.1862 113.171 95.043 113.262C94.8997 113.346 94.8281 113.6 94.8281 114.023L94.8086 114.287C94.7956 114.463 94.7891 114.645 94.7891 114.834V118.252C94.7891 120.908 94.8184 122.347 94.877 122.568C94.9551 122.874 95.4271 123.027 96.293 123.027L96.4297 123.018C97.2305 123.011 97.8717 122.923 98.3535 122.754C99.2975 122.415 99.9128 121.699 100.199 120.605C100.408 119.805 100.512 119.046 100.512 118.33ZM103.08 117.754V118.242C103.08 120.599 102.549 122.324 101.488 123.418C100.427 124.512 98.7344 125.059 96.4102 125.059H95.0527C93.4251 125.059 92.5462 124.941 92.416 124.707C92.3314 124.551 92.2891 123.132 92.2891 120.449V113.867L92.2793 113.643V113.203L92.2695 112.324V112.1C92.2695 111.611 92.4355 111.312 92.7676 111.201C92.9889 111.13 93.7865 111.094 95.1602 111.094H96.7617C99.9062 111.094 101.859 112.275 102.621 114.639C102.927 115.576 103.08 116.615 103.08 117.754ZM109.33 123.359H109.73C110.44 123.359 110.971 123.086 111.322 122.539C111.674 121.992 111.85 121.257 111.85 120.332V119.814C111.85 118.87 111.661 118.132 111.283 117.598C110.912 117.057 110.395 116.787 109.73 116.787H109.438C108.793 116.787 108.275 117.041 107.885 117.549C107.501 118.05 107.309 118.773 107.309 119.717V120.342C107.309 121.253 107.484 121.986 107.836 122.539C108.194 123.086 108.692 123.359 109.33 123.359ZM114.242 119.561V120.244C114.242 120.934 114.135 121.608 113.92 122.266C113.712 122.923 113.425 123.454 113.061 123.857C112.696 124.255 112.221 124.583 111.635 124.844C111.055 125.104 110.421 125.234 109.73 125.234H109.213C107.891 125.234 106.82 124.766 106 123.828C105.284 123.014 104.926 121.878 104.926 120.42V119.736C104.926 119.007 105.036 118.333 105.258 117.715C105.486 117.096 105.788 116.589 106.166 116.191C106.55 115.794 107.042 115.485 107.641 115.264C108.246 115.042 108.907 114.932 109.623 114.932L109.799 114.941C110.404 114.941 110.987 115.046 111.547 115.254C112.712 115.697 113.507 116.501 113.93 117.666C114.138 118.232 114.242 118.864 114.242 119.561ZM123.891 116.484C123.891 117.194 123.581 117.549 122.963 117.549C122.787 117.549 122.396 117.461 121.791 117.285C121.186 117.109 120.71 117.021 120.365 117.021C119.669 117.021 119.145 117.318 118.793 117.91C118.52 118.372 118.383 119.111 118.383 120.127C118.383 121.136 118.533 121.868 118.832 122.324C119.216 122.91 119.831 123.203 120.678 123.203C121.081 123.203 121.56 123.122 122.113 122.959C122.673 122.796 123.054 122.715 123.256 122.715C123.464 122.715 123.643 122.786 123.793 122.93C123.949 123.066 124.027 123.314 124.027 123.672C124.027 124.023 123.666 124.362 122.943 124.688C122.221 125.007 121.465 125.166 120.678 125.166H120.453C119.073 125.166 117.986 124.756 117.191 123.936C116.397 123.115 115.997 121.999 115.99 120.586V119.893C115.99 118.343 116.407 117.139 117.24 116.279C118.074 115.42 119.294 114.99 120.902 114.99H121.117C121.69 114.99 122.23 115.107 122.738 115.342C123.507 115.693 123.891 116.074 123.891 116.484ZM131.527 124.16C131.527 124.74 130.935 125.029 129.75 125.029C128.565 125.029 127.729 124.626 127.24 123.818C126.869 123.193 126.684 121.934 126.684 120.039V119.619L126.664 119.014L126.654 118.809L126.645 118.193C126.645 117.731 126.612 117.435 126.547 117.305C126.488 117.168 126.293 117.008 125.961 116.826C125.635 116.644 125.473 116.406 125.473 116.113V115.938C125.473 115.43 125.658 115.088 126.029 114.912C126.4 114.73 126.618 114.561 126.684 114.404C126.69 114.385 126.742 114.098 126.84 113.545C126.944 112.992 127.061 112.617 127.191 112.422C127.328 112.227 127.628 112.129 128.09 112.129C128.559 112.129 128.855 112.272 128.979 112.559C129.024 112.663 129.096 113.005 129.193 113.584C129.291 114.163 129.402 114.528 129.525 114.678C129.649 114.821 129.945 114.938 130.414 115.029C130.883 115.12 131.176 115.212 131.293 115.303C131.417 115.394 131.479 115.615 131.479 115.967C131.479 116.318 131.332 116.559 131.039 116.689C130.922 116.742 130.645 116.787 130.209 116.826C129.773 116.859 129.477 116.963 129.32 117.139C129.171 117.314 129.096 117.926 129.096 118.975L129.086 119.18C129.079 119.316 129.076 119.453 129.076 119.59L129.066 119.795V120.215C129.066 121.536 129.154 122.327 129.33 122.588C129.512 122.848 129.828 123.005 130.277 123.057C130.727 123.109 131.046 123.21 131.234 123.359C131.43 123.509 131.527 123.776 131.527 124.16ZM139.564 118.633V118.467C139.564 117.952 139.392 117.546 139.047 117.246C138.702 116.947 138.288 116.797 137.807 116.797H137.562C136.996 116.797 136.521 116.989 136.137 117.373C135.753 117.757 135.561 118.226 135.561 118.779V118.936C135.561 119.111 135.772 119.199 136.195 119.199H136.693L136.752 119.189L138.822 119.092L139.037 119.072C139.389 119.072 139.564 118.926 139.564 118.633ZM138.764 120.762C136.661 120.762 135.609 120.983 135.609 121.426C135.609 121.986 135.814 122.428 136.225 122.754C136.635 123.079 137.152 123.242 137.777 123.242C138.402 123.242 139.005 123.161 139.584 122.998C140.163 122.829 140.554 122.744 140.756 122.744C140.964 122.744 141.137 122.829 141.273 122.998C141.417 123.161 141.488 123.408 141.488 123.74C141.488 124.066 141.13 124.398 140.414 124.736C139.704 125.075 138.972 125.244 138.217 125.244H137.504C136.944 125.244 136.352 125.13 135.727 124.902C134.503 124.46 133.712 123.652 133.354 122.48C133.152 121.829 133.051 121.172 133.051 120.508V120.039C133.051 117.656 133.891 116.107 135.57 115.391C136.195 115.124 136.905 114.99 137.699 114.99C139.047 114.99 140.072 115.329 140.775 116.006C141.075 116.299 141.329 116.715 141.537 117.256C141.752 117.796 141.859 118.294 141.859 118.75V119.404C141.859 119.964 141.658 120.332 141.254 120.508C140.857 120.677 140.027 120.762 138.764 120.762ZM152.719 123.291C152.719 123.929 152.598 124.342 152.357 124.531C152.123 124.72 151.833 124.814 151.488 124.814C151.15 124.814 150.912 124.782 150.775 124.717C150.639 124.652 150.508 124.557 150.385 124.434C150.268 124.303 150.196 124.238 150.17 124.238C150.144 124.238 149.815 124.368 149.184 124.629C148.552 124.889 147.921 125.02 147.289 125.02C146.664 125.02 146.104 124.889 145.609 124.629C144.685 124.134 144.154 123.193 144.018 121.807C143.979 121.383 143.959 120.153 143.959 118.115L143.93 116.074V115.83C143.93 115.381 144.229 115.156 144.828 115.156H145.062C145.661 115.156 146.046 115.404 146.215 115.898C146.28 116.087 146.312 117.1 146.312 118.936C146.312 120.765 146.394 121.878 146.557 122.275C146.811 122.9 147.296 123.213 148.012 123.213C148.441 123.213 148.812 123.112 149.125 122.91C149.444 122.702 149.675 122.458 149.818 122.178C150.072 121.696 150.199 120.788 150.199 119.453L150.219 118.945L150.229 118.174C150.229 116.904 150.297 116.13 150.434 115.85C150.616 115.479 151.065 115.293 151.781 115.293C152.133 115.293 152.361 115.492 152.465 115.889C152.523 116.11 152.553 116.771 152.553 117.871L152.719 122.793V123.291ZM155.199 116.621V116.318C155.199 115.941 155.277 115.664 155.434 115.488C155.596 115.312 155.854 115.225 156.205 115.225H156.352C156.684 115.225 157.025 115.342 157.377 115.576C157.488 115.648 157.602 115.762 157.719 115.918C157.836 116.068 157.917 116.143 157.963 116.143C158.015 116.143 158.152 116.061 158.373 115.898C158.601 115.736 158.858 115.589 159.145 115.459C159.431 115.322 159.789 115.254 160.219 115.254C160.648 115.254 160.964 115.345 161.166 115.527C161.368 115.71 161.469 115.885 161.469 116.055C161.469 116.523 161.319 116.898 161.02 117.178C160.889 117.301 160.574 117.363 160.072 117.363C159.571 117.363 159.167 117.435 158.861 117.578C158.555 117.721 158.311 117.982 158.129 118.359C157.947 118.73 157.855 119.805 157.855 121.582C157.855 123.353 157.784 124.362 157.641 124.609C157.504 124.857 157.107 124.98 156.449 124.98H156.283L156.117 124.971C155.753 124.971 155.521 124.912 155.424 124.795C155.326 124.678 155.277 124.297 155.277 123.652L155.365 121.846L155.385 121.348V120.498L155.375 119.99V119.648L155.365 119.15C155.365 119.04 155.365 118.929 155.365 118.818L155.346 118.32C155.346 118.047 155.32 117.721 155.268 117.344C155.222 116.96 155.199 116.719 155.199 116.621Z" fill="#094067"/>
</svg>
